<svg width="800" height="400" viewBox="0 0 800 400" xmlns="http://www.w3.org/2000/svg"><mask id="satori_om-id"><rect x="0" y="0" width="800" height="400" fill="#fff"/></mask><rect x="0" y="0" width="800" height="400" fill="#1a1a1a"/><mask id="satori_om-id-0"><rect x="88" y="81" width="624" height="120" fill="#fff"/></mask><clipPath id="satori_cp-id-0-0"><rect x="88" y="81" width="120" height="120"/></clipPath><mask id="satori_om-id-0-0"><rect x="88" y="81" width="120" height="120" fill="#fff"/></mask><image x="88" y="81" width="120" height="120" href="data:image/svg+xml;utf8,%3Csvg  xmlns=%22http://www.w3.org/2000/svg%22 width=%22117.93103448275862%22 height=%22120%22 viewBox=%220 0 57 58%22%3E%3Cmask id=%22path-1-inside-1%22 fill=%22white%22%3E%3Cpath d=%22M28.2721 56.5437C24.5594 56.5437 20.883 55.8125 17.4529 54.3917C14.0228 52.9709 10.9061 50.8884 8.28084 48.2631C5.65556 45.6378 3.57307 42.5211 2.15227 39.091C0.731478 35.6609 0.000204433 31.9846 0.000204758 28.2719L28.2721 28.2719L28.2721 56.5437Z%22%3E%3C/path%3E%3C/mask%3E%3Cpath d=%22M28.2721 56.5437C24.5594 56.5437 20.883 55.8125 17.4529 54.3917C14.0228 52.9709 10.9061 50.8884 8.28084 48.2631C5.65556 45.6378 3.57307 42.5211 2.15227 39.091C0.731478 35.6609 0.000204433 31.9846 0.000204758 28.2719L28.2721 28.2719L28.2721 56.5437Z%22 fill=%22%23386BC0%22 fill-opacity=%220.96%22 stroke=%22white%22 stroke-width=%224%22 mask=%22url(%23path-1-inside-1)%22%3E%3C/path%3E%3Cmask id=%22path-2-inside-2%22 fill=%22white%22%3E%3Cpath d=%22M0.000204758 29.7281C0.000205413 22.2299 2.97884 15.0389 8.28084 9.73688C13.5828 4.43487 20.7739 1.45624 28.2721 1.45624L28.2721 29.7281L0.000204758 29.7281Z%22%3E%3C/path%3E%3C/mask%3E%3Cpath d=%22M0.000204758 29.7281C0.000205413 22.2299 2.97884 15.0389 8.28084 9.73688C13.5828 4.43487 20.7739 1.45624 28.2721 1.45624L28.2721 29.7281L0.000204758 29.7281Z%22 fill=%22%23CA3B3B%22 stroke=%22white%22 stroke-width=%224%22 mask=%22url(%23path-2-inside-2)%22%3E%3C/path%3E%3Cpath d=%22M20.0256 36.3044C18.3255 34.6043 17.2792 32.3726 17.0485 30L27.33 30L37.6114 30C37.3807 32.3726 36.3344 34.6043 34.6343 36.3044C32.6971 38.2416 30.0697 39.3299 27.33 39.3299C24.5903 39.3299 21.9629 38.2416 20.0256 36.3044Z%22 fill=%22%23CA3B3B%22 stroke=%22white%22 stroke-width=%222.1%22%3E%3C/path%3E%3Cpath d=%22M34.6294 21.6956C36.3295 23.3957 37.3758 25.6274 37.6065 28H27.325L17.0436 28C17.2743 25.6274 18.3206 23.3957 20.0207 21.6956C21.9579 19.7584 24.5854 18.6701 27.325 18.6701C30.0647 18.6701 32.6922 19.7584 34.6294 21.6956Z%22 fill=%22white%22 stroke=%22white%22 stroke-width=%222.1%22%3E%3C/path%3E%3C/svg%3E" preserveAspectRatio="none" clip-path="url(#satori_cp-id-0-0)" mask="url(#satori_om-id-0-0)"/><mask id="satori_om-id-0-0-0"><rect x="88" y="81" width="0" height="120" fill="#fff"/></mask><mask id="satori_om-id-0-0-0-0"><rect x="88" y="81" width="0" height="120" fill="#fff"/></mask><mask id="satori_om-id-0-0-1"><rect x="88" y="81" width="0" height="120" fill="#fff"/></mask><mask id="satori_om-id-0-0-2"><rect x="88" y="81" width="0" height="120" fill="#fff"/></mask><mask id="satori_om-id-0-0-2-0"><rect x="88" y="81" width="0" height="120" fill="#fff"/></mask><mask id="satori_om-id-0-0-3"><rect x="88" y="81" width="0" height="120" fill="#fff"/></mask><mask id="satori_om-id-0-0-4"><rect x="88" y="81" width="0" height="120" fill="#fff"/></mask><mask id="satori_om-id-0-0-5"><rect x="88" y="81" width="0" height="120" fill="#fff"/></mask><mask id="satori_om-id-0-1"><rect x="232" y="93" width="480" height="97" fill="#fff"/></mask><path fill="white" d="M261.7 125.6L247.1 170.5L233.9 170.5L254.0 112.3L269.8 112.3L289.9 170.5L276.7 170.5L262.1 125.6L261.7 125.6ZM246.3 157.2L246.3 147.6L277.4 147.6L277.4 157.2L246.3 157.2ZM331.9 139.3L331.9 139.3L320.9 140.0Q320.6 138.6 319.6 137.4Q318.7 136.3 317.2 135.6Q315.7 134.9 313.6 134.9L313.6 134.9Q310.8 134.9 308.8 136.1Q306.9 137.2 306.9 139.2L306.9 139.2Q306.9 140.8 308.1 141.8Q309.4 142.9 312.4 143.6L312.4 143.6L320.3 145.2Q326.7 146.5 329.8 149.4Q332.9 152.3 332.9 157.0L332.9 157.0Q332.9 161.3 330.4 164.5Q327.9 167.7 323.5 169.5Q319.2 171.4 313.5 171.4L313.5 171.4Q304.8 171.4 299.7 167.7Q294.6 164.1 293.7 157.9L293.7 157.9L305.6 157.2Q306.1 159.9 308.2 161.3Q310.3 162.6 313.5 162.6L313.5 162.6Q316.7 162.6 318.7 161.4Q320.6 160.2 320.6 158.2L320.6 158.2Q320.6 156.6 319.2 155.5Q317.9 154.4 315.0 153.9L315.0 153.9L307.5 152.3Q301.1 151.1 298.0 147.9Q294.9 144.8 294.9 139.9L294.9 139.9Q294.9 135.7 297.2 132.6Q299.4 129.6 303.6 127.9Q307.8 126.3 313.4 126.3L313.4 126.3Q321.6 126.3 326.4 129.8Q331.1 133.3 331.9 139.3ZM348.1 186.9L348.1 186.9Q345.8 186.9 343.7 186.5Q341.7 186.2 340.4 185.6L340.4 185.6L343.2 176.6Q345.3 177.2 347.0 177.3Q348.7 177.3 350.0 176.5Q351.3 175.6 352.1 173.6L352.1 173.6L352.8 171.8L337.1 126.9L349.8 126.9L358.9 158.9L359.3 158.9L368.4 126.9L381.3 126.9L364.3 175.2Q363.1 178.7 361.0 181.4Q358.9 184.0 355.7 185.4Q352.5 186.9 348.1 186.9ZM423.8 139.3L423.8 139.3L412.7 140.0Q412.4 138.6 411.5 137.4Q410.5 136.3 409.0 135.6Q407.5 134.9 405.4 134.9L405.4 134.9Q402.6 134.9 400.6 136.1Q398.7 137.2 398.7 139.2L398.7 139.2Q398.7 140.8 400.0 141.8Q401.2 142.9 404.2 143.6L404.2 143.6L412.1 145.2Q418.5 146.5 421.6 149.4Q424.8 152.3 424.8 157.0L424.8 157.0Q424.8 161.3 422.2 164.5Q419.7 167.7 415.4 169.5Q411.0 171.4 405.3 171.4L405.3 171.4Q396.7 171.4 391.5 167.7Q386.4 164.1 385.5 157.9L385.5 157.9L397.4 157.2Q398.0 159.9 400.0 161.3Q402.1 162.6 405.4 162.6L405.4 162.6Q408.5 162.6 410.5 161.4Q412.4 160.2 412.5 158.2L412.5 158.2Q412.4 156.6 411.1 155.5Q409.7 154.4 406.9 153.9L406.9 153.9L399.3 152.3Q392.9 151.1 389.8 147.9Q386.7 144.8 386.7 139.9L386.7 139.9Q386.7 135.7 389.0 132.6Q391.3 129.6 395.4 127.9Q399.6 126.3 405.2 126.3L405.2 126.3Q413.4 126.3 418.2 129.8Q423.0 133.3 423.8 139.3ZM429.3 126.9L455.6 126.9L455.6 136.0L429.3 136.0L429.3 126.9ZM435.3 158.7L435.3 116.4L447.4 116.4L447.4 157.1Q447.4 158.8 447.9 159.7Q448.4 160.6 449.3 161.0Q450.3 161.4 451.5 161.4L451.5 161.4Q452.3 161.4 453.2 161.2Q454.0 161.0 454.5 161.0L454.5 161.0L456.4 170.0Q455.5 170.2 453.8 170.6Q452.2 171.0 449.8 171.1L449.8 171.1Q445.5 171.3 442.2 169.9Q438.9 168.6 437.1 165.8Q435.3 163.0 435.3 158.7L435.3 158.7ZM482.9 171.4L482.9 171.4Q476.2 171.4 471.3 168.6Q466.5 165.9 463.9 160.8Q461.3 155.8 461.3 148.9L461.3 148.9Q461.3 142.1 463.9 137.1Q466.5 132.0 471.2 129.1Q476.0 126.3 482.4 126.3L482.4 126.3Q486.7 126.3 490.5 127.7Q494.2 129.1 497.0 131.8Q499.8 134.6 501.4 138.7Q502.9 142.9 502.9 148.5L502.9 148.5L502.9 151.8L466.1 151.8L466.1 144.3L491.5 144.3Q491.5 141.7 490.4 139.6Q489.3 137.6 487.3 136.5Q485.3 135.3 482.6 135.3L482.6 135.3Q479.9 135.3 477.8 136.6Q475.6 137.9 474.4 140.0Q473.3 142.1 473.2 144.7L473.2 144.7L473.2 151.8Q473.2 155.0 474.4 157.4Q475.6 159.8 477.9 161.0Q480.1 162.3 483.1 162.3L483.1 162.3Q485.1 162.3 486.8 161.8Q488.5 161.2 489.7 160.0Q490.9 158.9 491.5 157.3L491.5 157.3L502.7 158Q501.8 162.0 499.2 165.0Q496.6 168.0 492.4 169.7Q488.3 171.4 482.9 171.4ZM522.9 145.3L522.9 145.3L522.9 170.5L510.8 170.5L510.8 126.9L522.4 126.9L522.4 134.6L522.9 134.6Q524.3 130.8 527.7 128.5Q531.1 126.3 536.0 126.3L536.0 126.3Q540.6 126.3 543.9 128.3Q547.3 130.3 549.2 134.0Q551.1 137.6 551.1 142.7L551.1 142.7L551.1 170.5L539.0 170.5L539.0 144.9Q539.0 140.9 536.9 138.6Q534.8 136.4 531.2 136.4L531.2 136.4Q528.8 136.4 526.9 137.4Q525.0 138.5 524.0 140.5Q523.0 142.5 522.9 145.3ZM557.5 126.9L583.8 126.9L583.8 136.0L557.5 136.0L557.5 126.9ZM563.5 158.7L563.5 116.4L575.6 116.4L575.6 157.1Q575.6 158.8 576.1 159.7Q576.6 160.6 577.5 161.0Q578.4 161.4 579.7 161.4L579.7 161.4Q580.5 161.4 581.4 161.2Q582.2 161.0 582.7 161.0L582.7 161.0L584.6 170.0Q583.7 170.2 582.0 170.6Q580.4 171.0 578.0 171.1L578.0 171.1Q573.6 171.3 570.4 169.9Q567.1 168.6 565.3 165.8Q563.4 163.0 563.5 158.7L563.5 158.7Z M624.2 170.5L611.9 170.5L611.9 112.3L634.9 112.3Q641.5 112.3 646.1 114.7Q650.8 117.0 653.3 121.3Q655.7 125.6 655.7 131.3L655.7 131.3Q655.7 137.1 653.2 141.3Q650.7 145.4 646.0 147.7Q641.3 149.9 634.6 149.9L634.6 149.9L619.2 149.9L619.2 140.0L632.6 140.0Q636.1 140.0 638.4 139.0Q640.8 138.1 641.9 136.1Q643.1 134.2 643.1 131.3L643.1 131.3Q643.1 128.4 641.9 126.4Q640.8 124.4 638.4 123.4Q636.1 122.4 632.5 122.4L632.5 122.4L624.2 122.4L624.2 170.5ZM630.1 144.0L643.3 144.0L657.8 170.5L644.2 170.5L630.1 144.0ZM676.7 170.5L664.4 170.5L664.4 112.3L687.4 112.3Q694.0 112.3 698.6 114.8Q703.3 117.3 705.8 121.8Q708.2 126.2 708.2 132.0L708.2 132.0Q708.2 137.8 705.7 142.3Q703.2 146.7 698.5 149.2Q693.8 151.6 687.1 151.6L687.1 151.6L672.4 151.6L672.4 141.8L685.1 141.8Q688.6 141.8 690.9 140.5Q693.3 139.3 694.4 137.1Q695.6 134.9 695.6 132.0L695.6 132.0Q695.6 129.1 694.4 127.0Q693.3 124.8 690.9 123.6Q688.6 122.4 685.0 122.4L685.0 122.4L676.7 122.4L676.7 170.5Z "/><mask id="satori_om-id-1"><rect x="112" y="241" width="576" height="78" fill="#fff"/></mask><path fill="#888" d="M163.5 248.7L166.3 248.7L166.3 272L163.5 272L163.5 248.7ZM174.2 261.5L174.2 261.5L174.2 272L171.5 272L171.5 254.5L174.1 254.5L174.1 257.3L174.4 257.3Q175.0 255.9 176.2 255.1Q177.5 254.3 179.5 254.3L179.5 254.3Q181.2 254.3 182.6 255.0Q183.9 255.8 184.6 257.2Q185.4 258.7 185.4 260.9L185.4 260.9L185.4 272L182.7 272L182.7 261.1Q182.7 259.0 181.6 257.9Q180.5 256.7 178.7 256.7L178.7 256.7Q177.4 256.7 176.4 257.3Q175.4 257.8 174.8 258.9Q174.2 260.0 174.2 261.5ZM188.8 254.5L197.9 254.5L197.9 256.8L188.8 256.8L188.8 254.5ZM191.5 267.7L191.5 250.4L194.1 250.4L194.1 267Q194.1 268.1 194.5 268.7Q194.8 269.3 195.3 269.4Q195.9 269.6 196.5 269.6L196.5 269.6Q196.9 269.6 197.2 269.6Q197.5 269.5 197.6 269.5L197.6 269.5L198.2 271.9Q197.9 272.0 197.4 272.1Q196.9 272.2 196.2 272.2L196.2 272.2Q195.0 272.2 194.0 271.7Q192.9 271.3 192.2 270.3Q191.5 269.3 191.5 267.7L191.5 267.7ZM209.0 272.4L209.0 272.4Q206.5 272.4 204.7 271.2Q202.9 270.1 201.9 268.1Q200.9 266.1 200.9 263.4L200.9 263.4Q200.9 260.7 201.9 258.7Q202.9 256.6 204.6 255.5Q206.4 254.3 208.8 254.3L208.8 254.3Q210.1 254.3 211.5 254.8Q212.8 255.2 213.9 256.2Q215.0 257.3 215.6 258.9Q216.3 260.6 216.3 263.0L216.3 263.0L216.3 264.2L202.8 264.2L202.8 261.9L213.5 261.9Q213.5 260.4 213.0 259.2Q212.4 258.1 211.3 257.4Q210.2 256.7 208.8 256.7L208.8 256.7Q207.2 256.7 206.0 257.5Q204.8 258.3 204.2 259.6Q203.6 260.8 203.6 262.3L203.6 262.3L203.6 263.8Q203.6 265.8 204.3 267.2Q205.0 268.5 206.2 269.2Q207.4 270.0 209.0 270.0L209.0 270.0Q210.1 270.0 211.0 269.7Q211.8 269.4 212.4 268.7Q213.1 268.1 213.4 267.2L213.4 267.2L216 268.0Q215.6 269.3 214.6 270.3Q213.7 271.3 212.2 271.8Q210.8 272.4 209.0 272.4ZM220.4 248.7L223.0 248.7L223.0 272L220.4 272L220.4 248.7ZM230.6 272L228.0 272L228.0 254.5L230.6 254.5L230.6 272ZM229.3 251.6L229.3 251.6Q228.5 251.6 228.0 251.1Q227.4 250.6 227.4 249.8L227.4 249.8Q227.4 249.1 228.0 248.5Q228.5 248 229.3 248L229.3 248Q230.1 248 230.7 248.5Q231.2 249.1 231.2 249.8L231.2 249.8Q231.2 250.6 230.7 251.1Q230.1 251.6 229.3 251.6ZM242.6 278.9L242.6 278.9Q240.6 278.9 239.3 278.4Q237.9 277.9 236.9 277.1Q236 276.3 235.5 275.4L235.5 275.4L237.6 273.9Q238.0 274.4 238.5 275.0Q239.1 275.6 240.0 276.1Q241.0 276.5 242.6 276.5L242.6 276.5Q244.7 276.5 246.1 275.5Q247.5 274.5 247.5 272.3L247.5 272.3L247.5 268.8L247.2 268.8Q246.9 269.3 246.4 269.9Q245.9 270.6 244.8 271.2Q243.8 271.7 242.1 271.7L242.1 271.7Q240.0 271.7 238.3 270.7Q236.7 269.7 235.7 267.8Q234.7 265.9 234.7 263.2L234.7 263.2Q234.7 260.5 235.7 258.5Q236.6 256.5 238.3 255.4Q240.0 254.3 242.2 254.3L242.2 254.3Q243.9 254.3 244.9 254.9Q245.9 255.4 246.4 256.2Q247.0 256.9 247.3 257.3L247.3 257.3L247.5 257.3L247.5 254.5L250.1 254.5L250.1 272.5Q250.1 274.8 249.1 276.2Q248.1 277.6 246.4 278.2Q244.7 278.9 242.6 278.9ZM242.5 269.3L242.5 269.3Q244.1 269.3 245.2 268.6Q246.3 267.8 246.9 266.5Q247.5 265.1 247.5 263.1L247.5 263.1Q247.5 261.3 246.9 259.8Q246.4 258.4 245.3 257.5Q244.1 256.7 242.5 256.7L242.5 256.7Q240.8 256.7 239.7 257.6Q238.5 258.5 238.0 259.9Q237.4 261.4 237.4 263.1L237.4 263.1Q237.4 265.0 238.0 266.3Q238.6 267.7 239.7 268.5Q240.8 269.3 242.5 269.3ZM262.4 272.4L262.4 272.4Q259.8 272.4 258.0 271.2Q256.2 270.1 255.2 268.1Q254.2 266.1 254.2 263.4L254.2 263.4Q254.2 260.7 255.2 258.7Q256.2 256.6 258.0 255.5Q259.7 254.3 262.1 254.3L262.1 254.3Q263.5 254.3 264.8 254.8Q266.1 255.2 267.2 256.2Q268.3 257.3 268.9 258.9Q269.6 260.6 269.6 263.0L269.6 263.0L269.6 264.2L256.1 264.2L256.1 261.9L266.9 261.9Q266.9 260.4 266.3 259.2Q265.7 258.1 264.6 257.4Q263.5 256.7 262.1 256.7L262.1 256.7Q260.5 256.7 259.3 257.5Q258.2 258.3 257.5 259.6Q256.9 260.8 256.9 262.3L256.9 262.3L256.9 263.8Q256.9 265.8 257.6 267.2Q258.3 268.5 259.5 269.2Q260.7 270.0 262.4 270.0L262.4 270.0Q263.4 270.0 264.3 269.7Q265.1 269.4 265.8 268.7Q266.4 268.1 266.7 267.2L266.7 267.2L269.3 268.0Q268.9 269.3 267.9 270.3Q267.0 271.3 265.6 271.8Q264.1 272.4 262.4 272.4ZM276.4 261.5L276.4 261.5L276.4 272L273.7 272L273.7 254.5L276.3 254.5L276.3 257.3L276.5 257.3Q277.1 255.9 278.4 255.1Q279.6 254.3 281.6 254.3L281.6 254.3Q283.4 254.3 284.7 255.0Q286.0 255.8 286.8 257.2Q287.5 258.7 287.5 260.9L287.5 260.9L287.5 272L284.8 272L284.8 261.1Q284.8 259.0 283.8 257.9Q282.7 256.7 280.8 256.7L280.8 256.7Q279.5 256.7 278.5 257.3Q277.5 257.8 276.9 258.9Q276.4 260.0 276.4 261.5ZM291.0 254.5L300.0 254.5L300.0 256.8L291.0 256.8L291.0 254.5ZM293.6 267.7L293.6 250.4L296.3 250.4L296.3 267Q296.3 268.1 296.6 268.7Q296.9 269.3 297.5 269.4Q298.0 269.6 298.6 269.6L298.6 269.6Q299.0 269.6 299.3 269.6Q299.6 269.5 299.8 269.5L299.8 269.5L300.3 271.9Q300.0 272.0 299.6 272.1Q299.1 272.2 298.3 272.2L298.3 272.2Q297.2 272.2 296.1 271.7Q295.0 271.3 294.3 270.3Q293.6 269.3 293.6 267.7L293.6 267.7ZM306.7 261.5L306.7 261.5L306.7 272L304.0 272L304.0 254.5L306.6 254.5L306.6 257.3L306.9 257.3Q307.5 255.9 308.7 255.1Q310.0 254.3 312.0 254.3L312.0 254.3Q313.7 254.3 315.1 255.0Q316.4 255.8 317.1 257.2Q317.9 258.7 317.9 260.9L317.9 260.9L317.9 272L315.2 272L315.2 261.1Q315.2 259.0 314.1 257.9Q313.0 256.7 311.2 256.7L311.2 256.7Q309.9 256.7 308.9 257.3Q307.9 257.8 307.3 258.9Q306.7 260.0 306.7 261.5ZM323.9 278.5L323.9 278.5Q323.2 278.5 322.6 278.4Q322.1 278.3 321.9 278.2L321.9 278.2L322.6 275.9Q323.6 276.1 324.3 276.0Q325.1 276.0 325.7 275.4Q326.2 274.8 326.7 273.5L326.7 273.5L327.2 272.1L320.8 254.5L323.7 254.5L328.5 268.5L328.7 268.5L333.5 254.5L336.4 254.5L329.0 274.5Q328.5 275.9 327.8 276.8Q327.0 277.7 326.1 278.1Q325.1 278.5 323.9 278.5Z M354.9 272.4L354.9 272.4Q353.3 272.4 351.9 271.8Q350.5 271.1 349.8 269.9Q349.0 268.8 349.0 267.0L349.0 267.0Q349.0 265.5 349.5 264.6Q350.1 263.7 351.1 263.1Q352.1 262.6 353.3 262.3Q354.5 262.1 355.7 261.9L355.7 261.9Q357.3 261.7 358.3 261.6Q359.3 261.5 359.8 261.2Q360.2 261.0 360.2 260.3L360.2 260.3L360.2 260.2Q360.2 258.5 359.3 257.6Q358.4 256.7 356.5 256.7L356.5 256.7Q354.6 256.7 353.5 257.5Q352.4 258.4 352.0 259.3L352.0 259.3L349.5 258.4Q350.1 256.8 351.3 255.9Q352.4 255.0 353.8 254.7Q355.1 254.3 356.5 254.3L356.5 254.3Q357.3 254.3 358.4 254.5Q359.5 254.7 360.5 255.3Q361.5 255.9 362.2 257.2Q362.9 258.4 362.9 260.5L362.9 260.5L362.9 272L360.2 272L360.2 269.6L360.1 269.6Q359.8 270.2 359.2 270.9Q358.5 271.5 357.5 272.0Q356.4 272.4 354.9 272.4ZM355.3 270L355.3 270Q356.9 270 358.0 269.4Q359.1 268.8 359.7 267.8Q360.2 266.8 360.2 265.7L360.2 265.7L360.2 263.2Q360.1 263.4 359.5 263.6Q358.9 263.8 358.2 263.9Q357.4 264 356.7 264.1Q356.0 264.2 355.6 264.2L355.6 264.2Q354.5 264.4 353.6 264.7Q352.7 265.0 352.2 265.6Q351.6 266.2 351.6 267.2L351.6 267.2Q351.6 268.6 352.7 269.3Q353.7 270 355.3 270ZM380.2 258.5L380.2 258.5L377.8 259.1Q377.5 258.5 377.1 258.0Q376.7 257.4 375.9 257.0Q375.2 256.6 374.0 256.6L374.0 256.6Q372.4 256.6 371.3 257.4Q370.3 258.1 370.3 259.2L370.3 259.2Q370.3 260.2 371.0 260.8Q371.7 261.4 373.3 261.8L373.3 261.8L375.9 262.4Q378.2 263.0 379.4 264.1Q380.5 265.3 380.5 267.1L380.5 267.1Q380.5 268.6 379.6 269.8Q378.8 271 377.3 271.7Q375.7 272.4 373.7 272.4L373.7 272.4Q371.0 272.4 369.3 271.2Q367.5 270.0 367.0 267.8L367.0 267.8L369.6 267.2Q370.0 268.6 371.0 269.3Q372.0 270 373.6 270L373.6 270Q375.5 270 376.6 269.2Q377.7 268.4 377.7 267.3L377.7 267.3Q377.7 266.4 377.1 265.7Q376.5 265.1 375.1 264.8L375.1 264.8L372.2 264.1Q369.8 263.6 368.7 262.4Q367.6 261.2 367.6 259.4L367.6 259.4Q367.6 257.9 368.4 256.8Q369.3 255.6 370.7 255.0Q372.2 254.3 374.0 254.3L374.0 254.3Q376.6 254.3 378.1 255.5Q379.6 256.6 380.2 258.5ZM386.3 278.5L386.3 278.5Q385.6 278.5 385.1 278.4Q384.5 278.3 384.3 278.2L384.3 278.2L385.0 275.9Q386.0 276.1 386.7 276.0Q387.5 276.0 388.1 275.4Q388.6 274.8 389.1 273.5L389.1 273.5L389.6 272.1L383.2 254.5L386.1 254.5L390.9 268.5L391.1 268.5L395.9 254.5L398.8 254.5L391.4 274.5Q390.9 275.9 390.2 276.8Q389.4 277.7 388.5 278.1Q387.5 278.5 386.3 278.5ZM414.7 258.5L414.7 258.5L412.3 259.1Q412.1 258.5 411.7 258.0Q411.2 257.4 410.5 257.0Q409.7 256.6 408.5 256.6L408.5 256.6Q406.9 256.6 405.9 257.4Q404.8 258.1 404.8 259.2L404.8 259.2Q404.8 260.2 405.5 260.8Q406.3 261.4 407.8 261.8L407.8 261.8L410.4 262.4Q412.8 263.0 413.9 264.1Q415.0 265.3 415.0 267.1L415.0 267.1Q415.0 268.6 414.2 269.8Q413.3 271 411.8 271.7Q410.3 272.4 408.2 272.4L408.2 272.4Q405.6 272.4 403.8 271.2Q402.1 270.0 401.6 267.8L401.6 267.8L404.1 267.2Q404.5 268.6 405.5 269.3Q406.5 270 408.2 270L408.2 270Q410.1 270 411.2 269.2Q412.3 268.4 412.3 267.3L412.3 267.3Q412.3 266.4 411.6 265.7Q411.0 265.1 409.7 264.8L409.7 264.8L406.8 264.1Q404.4 263.6 403.3 262.4Q402.1 261.2 402.1 259.4L402.1 259.4Q402.1 257.9 403.0 256.8Q403.8 255.6 405.3 255.0Q406.7 254.3 408.5 254.3L408.5 254.3Q411.1 254.3 412.6 255.5Q414.1 256.6 414.7 258.5ZM417.6 254.5L426.7 254.5L426.7 256.8L417.6 256.8L417.6 254.5ZM420.3 267.7L420.3 250.4L423.0 250.4L423.0 267Q423.0 268.1 423.3 268.7Q423.6 269.3 424.2 269.4Q424.7 269.6 425.3 269.6L425.3 269.6Q425.7 269.6 426.0 269.6Q426.3 269.5 426.5 269.5L426.5 269.5L427.0 271.9Q426.7 272.0 426.2 272.1Q425.8 272.2 425.0 272.2L425.0 272.2Q423.9 272.2 422.8 271.7Q421.7 271.3 421.0 270.3Q420.3 269.3 420.3 267.7L420.3 267.7ZM437.9 272.4L437.9 272.4Q435.3 272.4 433.5 271.2Q431.7 270.1 430.7 268.1Q429.7 266.1 429.7 263.4L429.7 263.4Q429.7 260.7 430.7 258.7Q431.7 256.6 433.5 255.5Q435.2 254.3 437.6 254.3L437.6 254.3Q439.0 254.3 440.3 254.8Q441.6 255.2 442.7 256.2Q443.8 257.3 444.4 258.9Q445.1 260.6 445.1 263.0L445.1 263.0L445.1 264.2L431.6 264.2L431.6 261.9L442.4 261.9Q442.4 260.4 441.8 259.2Q441.2 258.1 440.1 257.4Q439.0 256.7 437.6 256.7L437.6 256.7Q436.0 256.7 434.8 257.5Q433.7 258.3 433.0 259.6Q432.4 260.8 432.4 262.3L432.4 262.3L432.4 263.8Q432.4 265.8 433.1 267.2Q433.8 268.5 435.0 269.2Q436.2 270.0 437.9 270.0L437.9 270.0Q438.9 270.0 439.8 269.7Q440.6 269.4 441.3 268.7Q441.9 268.1 442.2 267.2L442.2 267.2L444.8 268.0Q444.4 269.3 443.4 270.3Q442.5 271.3 441.1 271.8Q439.6 272.4 437.9 272.4ZM451.9 261.5L451.9 261.5L451.9 272L449.2 272L449.2 254.5L451.8 254.5L451.8 257.3L452.0 257.3Q452.6 255.9 453.9 255.1Q455.1 254.3 457.1 254.3L457.1 254.3Q458.9 254.3 460.2 255.0Q461.5 255.8 462.3 257.2Q463.0 258.7 463.0 260.9L463.0 260.9L463.0 272L460.3 272L460.3 261.1Q460.3 259.0 459.3 257.9Q458.2 256.7 456.3 256.7L456.3 256.7Q455.0 256.7 454.0 257.3Q453.0 257.8 452.4 258.9Q451.9 260.0 451.9 261.5ZM466.5 254.5L475.5 254.5L475.5 256.8L466.5 256.8L466.5 254.5ZM469.1 267.7L469.1 250.4L471.8 250.4L471.8 267Q471.8 268.1 472.1 268.7Q472.4 269.3 473.0 269.4Q473.5 269.6 474.1 269.6L474.1 269.6Q474.5 269.6 474.8 269.6Q475.1 269.5 475.3 269.5L475.3 269.5L475.8 271.9Q475.5 272.0 475.1 272.1Q474.6 272.2 473.8 272.2L473.8 272.2Q472.7 272.2 471.6 271.7Q470.5 271.3 469.8 270.3Q469.1 269.3 469.1 267.7L469.1 267.7Z M495.3 272.4L495.3 272.4Q493.1 272.4 491.5 271.3Q489.8 270.1 488.9 268.1Q487.9 266.1 487.9 263.3L487.9 263.3Q487.9 260.6 488.9 258.5Q489.8 256.5 491.5 255.4Q493.2 254.3 495.4 254.3L495.4 254.3Q497.1 254.3 498.1 254.9Q499.1 255.4 499.6 256.2Q500.1 256.9 500.4 257.3L500.4 257.3L500.6 257.3L500.6 248.7L503.3 248.7L503.3 272L500.7 272L500.7 269.3L500.4 269.3Q500.1 269.8 499.6 270.5Q499.0 271.2 498.0 271.8Q497 272.4 495.3 272.4ZM495.7 270.0L495.7 270.0Q497.3 270.0 498.4 269.1Q499.5 268.3 500.1 266.8Q500.7 265.3 500.7 263.3L500.7 263.3Q500.7 261.3 500.1 259.8Q499.5 258.4 498.4 257.6Q497.3 256.7 495.7 256.7L495.7 256.7Q494.0 256.7 492.8 257.6Q491.7 258.5 491.2 259.9Q490.6 261.4 490.6 263.3L490.6 263.3Q490.6 265.1 491.2 266.7Q491.7 268.2 492.9 269.1Q494 270.0 495.7 270.0ZM515.7 272.4L515.7 272.4Q513.3 272.4 511.5 271.2Q509.8 270.1 508.8 268.1Q507.8 266.1 507.8 263.4L507.8 263.4Q507.8 260.6 508.8 258.6Q509.8 256.6 511.5 255.4Q513.3 254.3 515.7 254.3L515.7 254.3Q518.0 254.3 519.8 255.4Q521.6 256.6 522.6 258.6Q523.6 260.6 523.6 263.4L523.6 263.4Q523.6 266.1 522.6 268.1Q521.6 270.1 519.8 271.2Q518.0 272.4 515.7 272.4ZM515.7 270.0L515.7 270.0Q517.5 270.0 518.6 269.0Q519.8 268.1 520.4 266.6Q520.9 265.1 520.9 263.4L520.9 263.4Q520.9 261.6 520.4 260.1Q519.8 258.6 518.6 257.7Q517.5 256.7 515.7 256.7L515.7 256.7Q513.9 256.7 512.7 257.7Q511.6 258.6 511.0 260.1Q510.5 261.6 510.5 263.4L510.5 263.4Q510.5 265.1 511.0 266.6Q511.6 268.1 512.7 269.0Q513.9 270.0 515.7 270.0Z M541.8 272.4L541.8 272.4Q540.2 272.4 538.8 271.8Q537.5 271.1 536.7 269.9Q535.9 268.8 535.9 267.0L535.9 267.0Q535.9 265.5 536.5 264.6Q537.0 263.7 538.0 263.1Q539.0 262.6 540.2 262.3Q541.4 262.1 542.6 261.9L542.6 261.9Q544.2 261.7 545.2 261.6Q546.2 261.5 546.7 261.2Q547.1 261.0 547.1 260.3L547.1 260.3L547.1 260.2Q547.1 258.5 546.2 257.6Q545.3 256.7 543.5 256.7L543.5 256.7Q541.5 256.7 540.4 257.5Q539.4 258.4 538.9 259.3L538.9 259.3L536.4 258.4Q537.0 256.8 538.2 255.9Q539.3 255.0 540.7 254.7Q542.0 254.3 543.4 254.3L543.4 254.3Q544.2 254.3 545.3 254.5Q546.4 254.7 547.4 255.3Q548.5 255.9 549.1 257.2Q549.8 258.4 549.8 260.5L549.8 260.5L549.8 272L547.1 272L547.1 269.6L547 269.6Q546.7 270.2 546.1 270.9Q545.5 271.5 544.4 272.0Q543.3 272.4 541.8 272.4ZM542.2 270L542.2 270Q543.8 270 544.9 269.4Q546.0 268.8 546.6 267.8Q547.1 266.8 547.1 265.7L547.1 265.7L547.1 263.2Q547.0 263.4 546.4 263.6Q545.8 263.8 545.1 263.9Q544.3 264 543.6 264.1Q542.9 264.2 542.5 264.2L542.5 264.2Q541.5 264.4 540.6 264.7Q539.6 265.0 539.1 265.6Q538.5 266.2 538.5 267.2L538.5 267.2Q538.5 268.6 539.6 269.3Q540.6 270 542.2 270ZM557.4 261.5L557.4 261.5L557.4 272L554.7 272L554.7 254.5L557.3 254.5L557.3 257.3L557.5 257.3Q558.2 255.9 559.4 255.1Q560.7 254.3 562.6 254.3L562.6 254.3Q564.4 254.3 565.7 255.0Q567.1 255.8 567.8 257.2Q568.5 258.7 568.5 260.9L568.5 260.9L568.5 272L565.9 272L565.9 261.1Q565.9 259.0 564.8 257.9Q563.7 256.7 561.9 256.7L561.9 256.7Q560.6 256.7 559.6 257.3Q558.6 257.8 558.0 258.9Q557.4 260.0 557.4 261.5ZM578.6 272.4L578.6 272.4Q576.9 272.4 575.6 271.8Q574.2 271.1 573.4 269.9Q572.6 268.8 572.6 267.0L572.6 267.0Q572.6 265.5 573.2 264.6Q573.8 263.7 574.8 263.1Q575.8 262.6 577.0 262.3Q578.2 262.1 579.4 261.9L579.4 261.9Q581 261.7 582.0 261.6Q583.0 261.5 583.4 261.2Q583.9 261.0 583.9 260.3L583.9 260.3L583.9 260.2Q583.9 258.5 583.0 257.6Q582.1 256.7 580.2 256.7L580.2 256.7Q578.3 256.7 577.2 257.5Q576.1 258.4 575.7 259.3L575.7 259.3L573.1 258.4Q573.8 256.8 575.0 255.9Q576.1 255.0 577.5 254.7Q578.8 254.3 580.1 254.3L580.1 254.3Q581.0 254.3 582.1 254.5Q583.2 254.7 584.2 255.3Q585.2 255.9 585.9 257.2Q586.6 258.4 586.6 260.5L586.6 260.5L586.6 272L583.9 272L583.9 269.6L583.8 269.6Q583.5 270.2 582.9 270.9Q582.2 271.5 581.2 272.0Q580.1 272.4 578.6 272.4ZM579 270L579 270Q580.6 270 581.7 269.4Q582.8 268.8 583.3 267.8Q583.9 266.8 583.9 265.7L583.9 265.7L583.9 263.2Q583.7 263.4 583.2 263.6Q582.6 263.8 581.8 263.9Q581.1 264 580.4 264.1Q579.7 264.2 579.3 264.2L579.3 264.2Q578.2 264.4 577.3 264.7Q576.4 265.0 575.9 265.6Q575.3 266.2 575.3 267.2L575.3 267.2Q575.3 268.6 576.4 269.3Q577.4 270 579 270ZM591.5 248.7L594.2 248.7L594.2 272L591.5 272L591.5 248.7ZM601.8 272L599.1 272L599.1 254.5L601.8 254.5L601.8 272ZM600.5 251.6L600.5 251.6Q599.7 251.6 599.1 251.1Q598.5 250.6 598.5 249.8L598.5 249.8Q598.5 249.1 599.1 248.5Q599.7 248 600.5 248L600.5 248Q601.2 248 601.8 248.5Q602.4 249.1 602.4 249.8L602.4 249.8Q602.4 250.6 601.8 251.1Q601.2 251.6 600.5 251.6ZM619.9 272L606.2 272L606.2 270.0L616.1 257.2L616.1 257.0L606.5 257.0L606.5 254.5L619.5 254.5L619.5 256.7L609.9 269.3L609.9 269.5L619.9 269.5L619.9 272ZM625.7 278.5L625.7 278.5Q625.0 278.5 624.5 278.4Q624.0 278.3 623.8 278.2L623.8 278.2L624.5 275.9Q625.4 276.1 626.2 276.0Q626.9 276.0 627.5 275.4Q628.1 274.8 628.6 273.5L628.6 273.5L629.1 272.1L622.6 254.5L625.5 254.5L630.4 268.5L630.5 268.5L635.4 254.5L638.3 254.5L630.9 274.5Q630.4 275.9 629.6 276.8Q628.9 277.7 627.9 278.1Q626.9 278.5 625.7 278.5Z M281.3 317.3L278.6 317.3L278.6 293.3L281.2 293.3L281.2 296.0L281.5 296.0Q281.8 295.6 282.4 294.9Q282.9 294.2 283.9 293.6Q284.9 293.0 286.6 293.0L286.6 293.0Q288.8 293.0 290.5 294.1Q292.2 295.3 293.1 297.3Q294.0 299.3 294.0 302.0L294.0 302.0Q294.0 304.8 293.1 306.8Q292.2 308.9 290.5 310.0Q288.8 311.1 286.6 311.1L286.6 311.1Q285.0 311.1 283.9 310.5Q282.9 310.0 282.4 309.2Q281.8 308.5 281.5 308.0L281.5 308.0L281.3 308.0L281.3 317.3ZM281.3 302L281.3 302Q281.3 304.0 281.9 305.5Q282.4 307.0 283.5 307.8Q284.7 308.7 286.3 308.7L286.3 308.7Q288.0 308.7 289.1 307.8Q290.2 306.9 290.8 305.4Q291.4 303.9 291.4 302L291.4 302Q291.4 300.2 290.8 298.7Q290.2 297.2 289.1 296.3Q288.0 295.5 286.3 295.5L286.3 295.5Q284.6 295.5 283.5 296.3Q282.4 297.1 281.8 298.6Q281.3 300.0 281.3 302ZM305.2 311.1L305.2 311.1Q302.9 311.1 301.1 310.0Q299.3 308.8 298.3 306.8Q297.3 304.8 297.3 302.1L297.3 302.1Q297.3 299.4 298.3 297.3Q299.3 295.3 301.1 294.2Q302.9 293.0 305.2 293.0L305.2 293.0Q307.6 293.0 309.4 294.2Q311.1 295.3 312.1 297.3Q313.1 299.4 313.1 302.1L313.1 302.1Q313.1 304.8 312.1 306.8Q311.1 308.8 309.4 310.0Q307.6 311.1 305.2 311.1ZM305.2 308.7L305.2 308.7Q307.0 308.7 308.2 307.8Q309.3 306.8 309.9 305.3Q310.5 303.8 310.5 302.1L310.5 302.1Q310.5 300.3 309.9 298.8Q309.3 297.3 308.2 296.4Q307.0 295.5 305.2 295.5L305.2 295.5Q303.4 295.5 302.3 296.4Q301.1 297.3 300.6 298.8Q300 300.3 300 302.1L300 302.1Q300 303.8 300.6 305.3Q301.1 306.8 302.3 307.8Q303.4 308.7 305.2 308.7ZM317.2 287.5L319.9 287.5L319.9 310.7L317.2 310.7L317.2 287.5ZM337.2 297.2L337.2 297.2L334.8 297.9Q334.5 297.3 334.1 296.7Q333.7 296.1 332.9 295.7Q332.2 295.4 331.0 295.4L331.0 295.4Q329.4 295.4 328.3 296.1Q327.3 296.8 327.3 298.0L327.3 298.0Q327.3 299.0 328.0 299.5Q328.7 300.1 330.3 300.5L330.3 300.5L332.9 301.1Q335.2 301.7 336.4 302.9Q337.5 304.0 337.5 305.9L337.5 305.9Q337.5 307.4 336.6 308.5Q335.8 309.7 334.2 310.4Q332.7 311.1 330.7 311.1L330.7 311.1Q328.0 311.1 326.3 309.9Q324.5 308.8 324.0 306.5L324.0 306.5L326.6 305.9Q327.0 307.3 328.0 308.0Q329.0 308.7 330.6 308.7L330.6 308.7Q332.5 308.7 333.6 307.9Q334.7 307.1 334.7 306L334.7 306Q334.7 305.1 334.1 304.5Q333.5 303.9 332.1 303.5L332.1 303.5L329.2 302.9Q326.8 302.3 325.7 301.1Q324.6 299.9 324.6 298.1L324.6 298.1Q324.6 296.6 325.4 295.5Q326.3 294.3 327.7 293.7Q329.2 293.0 331.0 293.0L331.0 293.0Q333.6 293.0 335.1 294.2Q336.6 295.3 337.2 297.2ZM347.1 301.5L344.0 304.4L344 301.0L344.5 301.0L352.2 293.3L355.5 293.3L347.4 301.5L347.1 301.5ZM344.2 310.7L341.5 310.7L341.5 287.5L344.2 287.5L344.2 310.7ZM356.0 310.7L352.6 310.7L345.8 302.1L347.7 300.2L356.0 310.7ZM361.6 310.7L359.0 310.7L359.0 293.3L361.6 293.3L361.6 310.7ZM360.3 290.4L360.3 290.4Q359.5 290.4 359.0 289.8Q358.4 289.3 358.4 288.5L358.4 288.5Q358.4 287.8 359.0 287.3Q359.5 286.7 360.3 286.7L360.3 286.7Q361.1 286.7 361.7 287.3Q362.2 287.8 362.2 288.5L362.2 288.5Q362.2 289.3 361.7 289.8Q361.1 290.4 360.3 290.4ZM373.9 311.1L373.9 311.1Q371.3 311.1 369.5 310.0Q367.7 308.9 366.7 306.8Q365.7 304.8 365.7 302.1L365.7 302.1Q365.7 299.5 366.7 297.4Q367.7 295.4 369.5 294.2Q371.2 293.0 373.6 293.0L373.6 293.0Q375.0 293.0 376.3 293.5Q377.6 294.0 378.7 295.0Q379.8 296.0 380.4 297.7Q381.1 299.3 381.1 301.8L381.1 301.8L381.1 302.9L367.6 302.9L367.6 300.6L378.4 300.6Q378.4 299.1 377.8 298.0Q377.2 296.8 376.1 296.1Q375.0 295.5 373.6 295.5L373.6 295.5Q372.0 295.5 370.8 296.2Q369.7 297.0 369.0 298.3Q368.4 299.6 368.4 301L368.4 301L368.4 302.5Q368.4 304.5 369.1 305.9Q369.8 307.3 371.0 308.0Q372.2 308.7 373.9 308.7L373.9 308.7Q374.9 308.7 375.8 308.4Q376.6 308.1 377.3 307.5Q377.9 306.9 378.2 306.0L378.2 306.0L380.8 306.7Q380.4 308 379.4 309.0Q378.5 310.0 377.1 310.5Q375.6 311.1 373.9 311.1ZM392.2 317.6L392.2 317.6Q390.3 317.6 388.9 317.1Q387.5 316.6 386.6 315.8Q385.6 315.0 385.1 314.1L385.1 314.1L387.2 312.6Q387.6 313.1 388.1 313.7Q388.7 314.4 389.7 314.8Q390.6 315.3 392.2 315.3L392.2 315.3Q394.3 315.3 395.7 314.3Q397.1 313.2 397.1 311.0L397.1 311.0L397.1 307.5L396.9 307.5Q396.6 308.0 396.0 308.7Q395.5 309.4 394.5 309.9Q393.5 310.5 391.8 310.5L391.8 310.5Q389.7 310.5 388.0 309.5Q386.3 308.5 385.3 306.5Q384.4 304.6 384.4 301.9L384.4 301.9Q384.4 299.2 385.3 297.2Q386.2 295.2 387.9 294.1Q389.6 293.0 391.8 293.0L391.8 293.0Q393.5 293.0 394.5 293.6Q395.5 294.2 396.1 294.9Q396.6 295.6 396.9 296.0L396.9 296.0L397.2 296.0L397.2 293.3L399.8 293.3L399.8 311.2Q399.8 313.5 398.8 314.9Q397.7 316.3 396.0 317.0Q394.3 317.6 392.2 317.6ZM392.1 308.0L392.1 308.0Q393.7 308.0 394.9 307.3Q396.0 306.6 396.6 305.2Q397.1 303.8 397.1 301.9L397.1 301.9Q397.1 300.0 396.6 298.5Q396.0 297.1 394.9 296.3Q393.8 295.5 392.1 295.5L392.1 295.5Q390.4 295.5 389.3 296.3Q388.2 297.2 387.6 298.6Q387.0 300.1 387.0 301.9L387.0 301.9Q387.0 303.7 387.6 305.1Q388.2 306.5 389.3 307.3Q390.5 308.0 392.1 308.0ZM411.8 311.1L411.8 311.1Q409.4 311.1 407.6 310.0Q405.9 308.8 404.9 306.8Q403.9 304.8 403.9 302.1L403.9 302.1Q403.9 299.4 404.9 297.3Q405.9 295.3 407.6 294.2Q409.4 293.0 411.8 293.0L411.8 293.0Q414.1 293.0 415.9 294.2Q417.7 295.3 418.7 297.3Q419.7 299.4 419.7 302.1L419.7 302.1Q419.7 304.8 418.7 306.8Q417.7 308.8 415.9 310.0Q414.1 311.1 411.8 311.1ZM411.8 308.7L411.8 308.7Q413.6 308.7 414.7 307.8Q415.9 306.8 416.4 305.3Q417.0 303.8 417.0 302.1L417.0 302.1Q417.0 300.3 416.4 298.8Q415.9 297.3 414.7 296.4Q413.6 295.5 411.8 295.5L411.8 295.5Q410.0 295.5 408.8 296.4Q407.7 297.3 407.1 298.8Q406.5 300.3 406.5 302.1L406.5 302.1Q406.5 303.8 407.1 305.3Q407.7 306.8 408.8 307.8Q410.0 308.7 411.8 308.7Z M435.5 317.3L432.8 317.3L432.8 293.3L435.4 293.3L435.4 296.0L435.7 296.0Q436.0 295.6 436.5 294.9Q437.0 294.2 438.0 293.6Q439.0 293.0 440.7 293.0L440.7 293.0Q442.9 293.0 444.6 294.1Q446.3 295.3 447.2 297.3Q448.2 299.3 448.2 302.0L448.2 302.0Q448.2 304.8 447.2 306.8Q446.3 308.9 444.6 310.0Q443.0 311.1 440.8 311.1L440.8 311.1Q439.1 311.1 438.1 310.5Q437.1 310.0 436.5 309.2Q436.0 308.5 435.7 308.0L435.7 308.0L435.5 308.0L435.5 317.3ZM435.4 302L435.4 302Q435.4 304.0 436.0 305.5Q436.6 307.0 437.7 307.8Q438.8 308.7 440.4 308.7L440.4 308.7Q442.1 308.7 443.2 307.8Q444.4 306.9 444.9 305.4Q445.5 303.9 445.5 302L445.5 302Q445.5 300.2 444.9 298.7Q444.4 297.2 443.2 296.3Q442.1 295.5 440.4 295.5L440.4 295.5Q438.8 295.5 437.7 296.3Q436.5 297.1 436.0 298.6Q435.4 300.0 435.4 302ZM455.0 310.7L452.3 310.7L452.3 293.3L454.9 293.3L454.9 295.9L455.0 295.9Q455.5 294.6 456.8 293.8Q458.0 293 459.6 293L459.6 293Q459.9 293 460.3 293.0Q460.8 293.0 461.0 293.0L461.0 293.0L461.0 295.8Q460.9 295.7 460.4 295.7Q459.9 295.6 459.4 295.6L459.4 295.6Q458.1 295.6 457.1 296.1Q456.1 296.6 455.5 297.6Q455.0 298.5 455.0 299.7L455.0 299.7L455.0 310.7ZM469.3 311.1L469.3 311.1Q467.7 311.1 466.3 310.5Q465.0 309.9 464.2 308.7Q463.4 307.5 463.4 305.8L463.4 305.8Q463.4 304.3 464.0 303.3Q464.5 302.4 465.5 301.9Q466.5 301.3 467.7 301.1Q468.9 300.8 470.1 300.6L470.1 300.6Q471.7 300.4 472.7 300.3Q473.7 300.2 474.2 300.0Q474.6 299.7 474.6 299.0L474.6 299.0L474.6 299.0Q474.6 297.3 473.7 296.3Q472.8 295.4 471.0 295.4L471.0 295.4Q469.0 295.4 467.9 296.3Q466.9 297.1 466.4 298.0L466.4 298.0L463.9 297.1Q464.5 295.5 465.7 294.7Q466.8 293.8 468.2 293.4Q469.5 293.0 470.9 293.0L470.9 293.0Q471.7 293.0 472.8 293.2Q473.9 293.4 474.9 294.1Q476.0 294.7 476.6 295.9Q477.3 297.1 477.3 299.2L477.3 299.2L477.3 310.7L474.6 310.7L474.6 308.4L474.5 308.4Q474.2 308.9 473.6 309.6Q473.0 310.2 471.9 310.7Q470.8 311.1 469.3 311.1ZM469.7 308.7L469.7 308.7Q471.3 308.7 472.4 308.1Q473.5 307.5 474.1 306.5Q474.6 305.5 474.6 304.4L474.6 304.4L474.6 302.0Q474.5 302.2 473.9 302.3Q473.3 302.5 472.6 302.6Q471.8 302.7 471.1 302.8Q470.4 302.9 470.0 303.0L470.0 303.0Q469.0 303.1 468.1 303.4Q467.1 303.7 466.6 304.3Q466.0 304.9 466.0 305.9L466.0 305.9Q466.0 307.3 467.1 308.0Q468.1 308.7 469.7 308.7ZM488.8 310.7L486.2 310.7L480.9 293.3L483.7 293.3L487.5 306.6L487.6 306.6L491.4 293.3L494.2 293.3L497.9 306.6L498.1 306.6L501.9 293.3L504.7 293.3L499.4 310.7L496.7 310.7L492.9 297.3L492.6 297.3L488.8 310.7ZM513.4 311.1L513.4 311.1Q511.7 311.1 510.4 310.5Q509.0 309.9 508.2 308.7Q507.4 307.5 507.4 305.8L507.4 305.8Q507.4 304.3 508.0 303.3Q508.6 302.4 509.6 301.9Q510.6 301.3 511.8 301.1Q513.0 300.8 514.2 300.6L514.2 300.6Q515.8 300.4 516.8 300.3Q517.8 300.2 518.2 300.0Q518.7 299.7 518.7 299.0L518.7 299.0L518.7 299.0Q518.7 297.3 517.8 296.3Q516.9 295.4 515.0 295.4L515.0 295.4Q513.1 295.4 512.0 296.3Q510.9 297.1 510.5 298.0L510.5 298.0L507.9 297.1Q508.6 295.5 509.7 294.7Q510.9 293.8 512.2 293.4Q513.6 293.0 514.9 293.0L514.9 293.0Q515.8 293.0 516.8 293.2Q517.9 293.4 519.0 294.1Q520.0 294.7 520.7 295.9Q521.4 297.1 521.4 299.2L521.4 299.2L521.4 310.7L518.7 310.7L518.7 308.4L518.5 308.4Q518.3 308.9 517.6 309.6Q517.0 310.2 515.9 310.7Q514.9 311.1 513.4 311.1ZM513.8 308.7L513.8 308.7Q515.4 308.7 516.5 308.1Q517.6 307.5 518.1 306.5Q518.7 305.5 518.7 304.4L518.7 304.4L518.7 302.0Q518.5 302.2 517.9 302.3Q517.4 302.5 516.6 302.6Q515.9 302.7 515.2 302.8Q514.5 302.9 514.0 303.0L514.0 303.0Q513.0 303.1 512.1 303.4Q511.2 303.7 510.6 304.3Q510.1 304.9 510.1 305.9L510.1 305.9Q510.1 307.3 511.1 308.0Q512.2 308.7 513.8 308.7Z "/></svg>